<mxfile host="app.diagrams.net" agent="Mozilla/5.0 (X11; Linux x86_64; rv:136.0) Gecko/20100101 Firefox/136.0" version="26.1.1">
  <diagram id="R2lEEEUBdFMjLlhIrx00" name="Page-1">
    <mxGraphModel dx="1328" dy="1366" grid="1" gridSize="10" guides="1" tooltips="1" connect="1" arrows="1" fold="1" page="1" pageScale="1" pageWidth="850" pageHeight="1100" math="0" shadow="0" extFonts="Permanent Marker^https://fonts.googleapis.com/css?family=Permanent+Marker">
      <root>
        <mxCell id="0" />
        <mxCell id="1" parent="0" />
        <mxCell id="ayTrJT8fHetVOEcy8Kd8-426" style="edgeStyle=orthogonalEdgeStyle;rounded=0;orthogonalLoop=1;jettySize=auto;html=1;entryX=0;entryY=0.5;entryDx=0;entryDy=0;endArrow=none;startFill=0;" parent="1" source="ayTrJT8fHetVOEcy8Kd8-5" target="ayTrJT8fHetVOEcy8Kd8-425" edge="1">
          <mxGeometry relative="1" as="geometry" />
        </mxCell>
        <mxCell id="ayTrJT8fHetVOEcy8Kd8-5" value="Cliente" style="rounded=0;whiteSpace=wrap;html=1;" parent="1" vertex="1">
          <mxGeometry x="-265" y="368.4602540378444" width="160" height="60" as="geometry" />
        </mxCell>
        <mxCell id="ayTrJT8fHetVOEcy8Kd8-32" value="" style="group" parent="1" vertex="1" connectable="0">
          <mxGeometry x="-188.5" y="340.4615242270664" width="8" height="28" as="geometry" />
        </mxCell>
        <mxCell id="ayTrJT8fHetVOEcy8Kd8-33" value="" style="ellipse;whiteSpace=wrap;html=1;aspect=fixed;fillColor=light-dark(#FFFFFF,#FFFFFF);" parent="ayTrJT8fHetVOEcy8Kd8-32" vertex="1">
          <mxGeometry width="8" height="8" as="geometry" />
        </mxCell>
        <mxCell id="ayTrJT8fHetVOEcy8Kd8-34" style="edgeStyle=orthogonalEdgeStyle;rounded=0;orthogonalLoop=1;jettySize=auto;html=1;endArrow=none;startFill=0;" parent="ayTrJT8fHetVOEcy8Kd8-32" edge="1">
          <mxGeometry relative="1" as="geometry">
            <mxPoint x="4" y="28" as="targetPoint" />
            <mxPoint x="4" y="8" as="sourcePoint" />
          </mxGeometry>
        </mxCell>
        <mxCell id="ayTrJT8fHetVOEcy8Kd8-35" value="&lt;font style=&quot;font-size: 8px;&quot;&gt;id&lt;/font&gt;" style="text;html=1;align=center;verticalAlign=middle;resizable=0;points=[];autosize=1;strokeColor=none;fillColor=none;rotation=-60;" parent="1" vertex="1">
          <mxGeometry x="-200" y="314.0015242270664" width="30" height="30" as="geometry" />
        </mxCell>
        <mxCell id="ayTrJT8fHetVOEcy8Kd8-44" value="Persona_Fisica" style="rounded=0;whiteSpace=wrap;html=1;" parent="1" vertex="1">
          <mxGeometry x="-405" y="528.92" width="200" height="60" as="geometry" />
        </mxCell>
        <mxCell id="ayTrJT8fHetVOEcy8Kd8-46" value="" style="endArrow=none;startArrow=none;html=1;rounded=0;exitX=0.5;exitY=0;exitDx=0;exitDy=0;startFill=0;" parent="1" source="ayTrJT8fHetVOEcy8Kd8-44" edge="1">
          <mxGeometry width="50" height="50" relative="1" as="geometry">
            <mxPoint x="-295" y="528" as="sourcePoint" />
            <mxPoint x="-65" y="529" as="targetPoint" />
            <Array as="points">
              <mxPoint x="-305" y="489" />
              <mxPoint x="-175" y="489.4602540378444" />
              <mxPoint x="-65" y="489" />
            </Array>
          </mxGeometry>
        </mxCell>
        <mxCell id="ayTrJT8fHetVOEcy8Kd8-47" value="" style="endArrow=classic;html=1;rounded=0;entryX=0.5;entryY=1;entryDx=0;entryDy=0;endFill=1;" parent="1" edge="1">
          <mxGeometry width="50" height="50" relative="1" as="geometry">
            <mxPoint x="-185" y="489.4602540378444" as="sourcePoint" />
            <mxPoint x="-185" y="430" as="targetPoint" />
          </mxGeometry>
        </mxCell>
        <mxCell id="ayTrJT8fHetVOEcy8Kd8-48" value="(T,E)" style="text;html=1;align=center;verticalAlign=middle;resizable=0;points=[];autosize=1;strokeColor=none;fillColor=none;" parent="1" vertex="1">
          <mxGeometry x="-191" y="439.4602540378444" width="60" height="30" as="geometry" />
        </mxCell>
        <mxCell id="ayTrJT8fHetVOEcy8Kd8-49" value="" style="group" parent="1" vertex="1" connectable="0">
          <mxGeometry x="-397.5" y="500.92152422706636" width="8" height="28" as="geometry" />
        </mxCell>
        <mxCell id="ayTrJT8fHetVOEcy8Kd8-50" value="" style="ellipse;whiteSpace=wrap;html=1;aspect=fixed;fillColor=light-dark(#FFFFFF,#FFFFFF);strokeColor=light-dark(#FFFFFF,#FFFFFF);" parent="ayTrJT8fHetVOEcy8Kd8-49" vertex="1">
          <mxGeometry width="8" height="8" as="geometry" />
        </mxCell>
        <mxCell id="ayTrJT8fHetVOEcy8Kd8-51" style="edgeStyle=orthogonalEdgeStyle;rounded=0;orthogonalLoop=1;jettySize=auto;html=1;endArrow=none;startFill=0;" parent="ayTrJT8fHetVOEcy8Kd8-49" edge="1">
          <mxGeometry relative="1" as="geometry">
            <mxPoint x="4" y="28" as="targetPoint" />
            <mxPoint x="4" y="8" as="sourcePoint" />
          </mxGeometry>
        </mxCell>
        <mxCell id="ayTrJT8fHetVOEcy8Kd8-52" value="&lt;font style=&quot;font-size: 8px;&quot;&gt;dni&lt;/font&gt;" style="text;html=1;align=center;verticalAlign=middle;resizable=0;points=[];autosize=1;strokeColor=none;fillColor=none;rotation=-60;" parent="1" vertex="1">
          <mxGeometry x="-413" y="472.0015242270663" width="40" height="30" as="geometry" />
        </mxCell>
        <mxCell id="ayTrJT8fHetVOEcy8Kd8-53" value="" style="group" parent="1" vertex="1" connectable="0">
          <mxGeometry x="-378.5" y="500.92152422706636" width="8" height="28" as="geometry" />
        </mxCell>
        <mxCell id="ayTrJT8fHetVOEcy8Kd8-54" value="" style="ellipse;whiteSpace=wrap;html=1;aspect=fixed;" parent="ayTrJT8fHetVOEcy8Kd8-53" vertex="1">
          <mxGeometry width="8" height="8" as="geometry" />
        </mxCell>
        <mxCell id="ayTrJT8fHetVOEcy8Kd8-55" style="edgeStyle=orthogonalEdgeStyle;rounded=0;orthogonalLoop=1;jettySize=auto;html=1;endArrow=none;startFill=0;" parent="ayTrJT8fHetVOEcy8Kd8-53" edge="1">
          <mxGeometry relative="1" as="geometry">
            <mxPoint x="4" y="28" as="targetPoint" />
            <mxPoint x="4" y="8" as="sourcePoint" />
          </mxGeometry>
        </mxCell>
        <mxCell id="ayTrJT8fHetVOEcy8Kd8-56" value="&lt;font style=&quot;font-size: 8px;&quot;&gt;nombre&lt;/font&gt;" style="text;html=1;align=center;verticalAlign=middle;resizable=0;points=[];autosize=1;strokeColor=none;fillColor=none;rotation=-60;" parent="1" vertex="1">
          <mxGeometry x="-396" y="464.0015242270663" width="50" height="30" as="geometry" />
        </mxCell>
        <mxCell id="ayTrJT8fHetVOEcy8Kd8-57" value="" style="group" parent="1" vertex="1" connectable="0">
          <mxGeometry x="-358.5" y="500.92152422706636" width="8" height="28" as="geometry" />
        </mxCell>
        <mxCell id="ayTrJT8fHetVOEcy8Kd8-58" value="" style="ellipse;whiteSpace=wrap;html=1;aspect=fixed;" parent="ayTrJT8fHetVOEcy8Kd8-57" vertex="1">
          <mxGeometry width="8" height="8" as="geometry" />
        </mxCell>
        <mxCell id="ayTrJT8fHetVOEcy8Kd8-59" style="edgeStyle=orthogonalEdgeStyle;rounded=0;orthogonalLoop=1;jettySize=auto;html=1;endArrow=none;startFill=0;" parent="ayTrJT8fHetVOEcy8Kd8-57" edge="1">
          <mxGeometry relative="1" as="geometry">
            <mxPoint x="4" y="28" as="targetPoint" />
            <mxPoint x="4" y="8" as="sourcePoint" />
          </mxGeometry>
        </mxCell>
        <mxCell id="ayTrJT8fHetVOEcy8Kd8-60" value="&lt;font style=&quot;font-size: 8px;&quot;&gt;apellido&lt;/font&gt;" style="text;html=1;align=center;verticalAlign=middle;resizable=0;points=[];autosize=1;strokeColor=none;fillColor=none;rotation=-60;" parent="1" vertex="1">
          <mxGeometry x="-380" y="459.0015242270663" width="60" height="30" as="geometry" />
        </mxCell>
        <mxCell id="ayTrJT8fHetVOEcy8Kd8-65" value="" style="group" parent="1" vertex="1" connectable="0">
          <mxGeometry x="-48" y="500.92152422706636" width="8" height="28" as="geometry" />
        </mxCell>
        <mxCell id="ayTrJT8fHetVOEcy8Kd8-66" value="" style="ellipse;whiteSpace=wrap;html=1;aspect=fixed;fillColor=light-dark(#FFFFFF,#FFFFFF);" parent="ayTrJT8fHetVOEcy8Kd8-65" vertex="1">
          <mxGeometry width="8" height="8" as="geometry" />
        </mxCell>
        <mxCell id="ayTrJT8fHetVOEcy8Kd8-67" style="edgeStyle=orthogonalEdgeStyle;rounded=0;orthogonalLoop=1;jettySize=auto;html=1;endArrow=none;startFill=0;" parent="ayTrJT8fHetVOEcy8Kd8-65" edge="1">
          <mxGeometry relative="1" as="geometry">
            <mxPoint x="4" y="28" as="targetPoint" />
            <mxPoint x="4" y="8" as="sourcePoint" />
          </mxGeometry>
        </mxCell>
        <mxCell id="ayTrJT8fHetVOEcy8Kd8-68" value="&lt;font style=&quot;font-size: 8px;&quot;&gt;razon_social&lt;/font&gt;" style="text;html=1;align=center;verticalAlign=middle;resizable=0;points=[];autosize=1;strokeColor=none;fillColor=none;rotation=-60;" parent="1" vertex="1">
          <mxGeometry x="-73" y="455.0015242270663" width="80" height="30" as="geometry" />
        </mxCell>
        <mxCell id="ayTrJT8fHetVOEcy8Kd8-414" style="edgeStyle=orthogonalEdgeStyle;rounded=0;orthogonalLoop=1;jettySize=auto;html=1;entryX=0;entryY=0.5;entryDx=0;entryDy=0;endArrow=none;startFill=0;" parent="1" source="ayTrJT8fHetVOEcy8Kd8-213" target="ayTrJT8fHetVOEcy8Kd8-247" edge="1">
          <mxGeometry relative="1" as="geometry" />
        </mxCell>
        <mxCell id="ayTrJT8fHetVOEcy8Kd8-213" value="trans_tarj" style="rhombus;whiteSpace=wrap;html=1;" parent="1" vertex="1">
          <mxGeometry x="608.5" y="359.1400000000002" width="80" height="80" as="geometry" />
        </mxCell>
        <mxCell id="ayTrJT8fHetVOEcy8Kd8-220" value="" style="group" parent="1" vertex="1" connectable="0">
          <mxGeometry x="-339" y="501.0015242270663" width="8" height="28" as="geometry" />
        </mxCell>
        <mxCell id="ayTrJT8fHetVOEcy8Kd8-221" value="" style="ellipse;whiteSpace=wrap;html=1;aspect=fixed;" parent="ayTrJT8fHetVOEcy8Kd8-220" vertex="1">
          <mxGeometry width="8" height="8" as="geometry" />
        </mxCell>
        <mxCell id="ayTrJT8fHetVOEcy8Kd8-222" style="edgeStyle=orthogonalEdgeStyle;rounded=0;orthogonalLoop=1;jettySize=auto;html=1;endArrow=none;startFill=0;" parent="ayTrJT8fHetVOEcy8Kd8-220" edge="1">
          <mxGeometry relative="1" as="geometry">
            <mxPoint x="4" y="28" as="targetPoint" />
            <mxPoint x="4" y="8" as="sourcePoint" />
          </mxGeometry>
        </mxCell>
        <mxCell id="ayTrJT8fHetVOEcy8Kd8-223" value="&lt;font style=&quot;font-size: 8px;&quot;&gt;direccion&lt;/font&gt;" style="text;html=1;align=center;verticalAlign=middle;resizable=0;points=[];autosize=1;strokeColor=none;fillColor=none;rotation=-60;" parent="1" vertex="1">
          <mxGeometry x="-364" y="455.00152422706617" width="70" height="30" as="geometry" />
        </mxCell>
        <mxCell id="ayTrJT8fHetVOEcy8Kd8-224" value="" style="group" parent="1" vertex="1" connectable="0">
          <mxGeometry x="-319" y="501.0015242270663" width="8" height="28" as="geometry" />
        </mxCell>
        <mxCell id="ayTrJT8fHetVOEcy8Kd8-225" value="" style="ellipse;whiteSpace=wrap;html=1;aspect=fixed;" parent="ayTrJT8fHetVOEcy8Kd8-224" vertex="1">
          <mxGeometry width="8" height="8" as="geometry" />
        </mxCell>
        <mxCell id="ayTrJT8fHetVOEcy8Kd8-226" style="edgeStyle=orthogonalEdgeStyle;rounded=0;orthogonalLoop=1;jettySize=auto;html=1;endArrow=none;startFill=0;" parent="ayTrJT8fHetVOEcy8Kd8-224" edge="1">
          <mxGeometry relative="1" as="geometry">
            <mxPoint x="4" y="28" as="targetPoint" />
            <mxPoint x="4" y="8" as="sourcePoint" />
          </mxGeometry>
        </mxCell>
        <mxCell id="ayTrJT8fHetVOEcy8Kd8-227" value="&lt;font style=&quot;font-size: 8px;&quot;&gt;telefono&lt;/font&gt;" style="text;html=1;align=center;verticalAlign=middle;resizable=0;points=[];autosize=1;strokeColor=none;fillColor=none;rotation=-60;" parent="1" vertex="1">
          <mxGeometry x="-339" y="458.00152422706617" width="60" height="30" as="geometry" />
        </mxCell>
        <mxCell id="ayTrJT8fHetVOEcy8Kd8-231" value="Empresa" style="rounded=0;whiteSpace=wrap;html=1;" parent="1" vertex="1">
          <mxGeometry x="-164" y="529" width="200" height="60" as="geometry" />
        </mxCell>
        <mxCell id="ayTrJT8fHetVOEcy8Kd8-235" value="" style="group" parent="1" vertex="1" connectable="0">
          <mxGeometry x="-29" y="500.92152422706624" width="8" height="28" as="geometry" />
        </mxCell>
        <mxCell id="ayTrJT8fHetVOEcy8Kd8-236" value="" style="ellipse;whiteSpace=wrap;html=1;aspect=fixed;" parent="ayTrJT8fHetVOEcy8Kd8-235" vertex="1">
          <mxGeometry width="8" height="8" as="geometry" />
        </mxCell>
        <mxCell id="ayTrJT8fHetVOEcy8Kd8-237" style="edgeStyle=orthogonalEdgeStyle;rounded=0;orthogonalLoop=1;jettySize=auto;html=1;endArrow=none;startFill=0;" parent="ayTrJT8fHetVOEcy8Kd8-235" edge="1">
          <mxGeometry relative="1" as="geometry">
            <mxPoint x="4" y="28" as="targetPoint" />
            <mxPoint x="4" y="8" as="sourcePoint" />
          </mxGeometry>
        </mxCell>
        <mxCell id="ayTrJT8fHetVOEcy8Kd8-238" value="&lt;font style=&quot;font-size: 8px;&quot;&gt;telefono(1,n)&lt;/font&gt;" style="text;html=1;align=center;verticalAlign=middle;resizable=0;points=[];autosize=1;strokeColor=none;fillColor=none;rotation=-60;" parent="1" vertex="1">
          <mxGeometry x="-57" y="452.00152422706617" width="90" height="30" as="geometry" />
        </mxCell>
        <mxCell id="ayTrJT8fHetVOEcy8Kd8-239" value="" style="group" parent="1" vertex="1" connectable="0">
          <mxGeometry x="-9" y="500.92152422706624" width="8" height="28" as="geometry" />
        </mxCell>
        <mxCell id="ayTrJT8fHetVOEcy8Kd8-240" value="" style="ellipse;whiteSpace=wrap;html=1;aspect=fixed;" parent="ayTrJT8fHetVOEcy8Kd8-239" vertex="1">
          <mxGeometry width="8" height="8" as="geometry" />
        </mxCell>
        <mxCell id="ayTrJT8fHetVOEcy8Kd8-241" style="edgeStyle=orthogonalEdgeStyle;rounded=0;orthogonalLoop=1;jettySize=auto;html=1;endArrow=none;startFill=0;" parent="ayTrJT8fHetVOEcy8Kd8-239" edge="1">
          <mxGeometry relative="1" as="geometry">
            <mxPoint x="4" y="28" as="targetPoint" />
            <mxPoint x="4" y="8" as="sourcePoint" />
          </mxGeometry>
        </mxCell>
        <mxCell id="ayTrJT8fHetVOEcy8Kd8-242" value="&lt;font style=&quot;font-size: 8px;&quot;&gt;dir_web(0,1)&lt;/font&gt;" style="text;html=1;align=center;verticalAlign=middle;resizable=0;points=[];autosize=1;strokeColor=none;fillColor=none;rotation=-60;" parent="1" vertex="1">
          <mxGeometry x="-34" y="454.00152422706617" width="80" height="30" as="geometry" />
        </mxCell>
        <mxCell id="ayTrJT8fHetVOEcy8Kd8-243" value="" style="group" parent="1" vertex="1" connectable="0">
          <mxGeometry x="11" y="501.0015242270663" width="8" height="28" as="geometry" />
        </mxCell>
        <mxCell id="ayTrJT8fHetVOEcy8Kd8-244" value="" style="ellipse;whiteSpace=wrap;html=1;aspect=fixed;" parent="ayTrJT8fHetVOEcy8Kd8-243" vertex="1">
          <mxGeometry width="8" height="8" as="geometry" />
        </mxCell>
        <mxCell id="ayTrJT8fHetVOEcy8Kd8-245" style="edgeStyle=orthogonalEdgeStyle;rounded=0;orthogonalLoop=1;jettySize=auto;html=1;endArrow=none;startFill=0;" parent="ayTrJT8fHetVOEcy8Kd8-243" edge="1">
          <mxGeometry relative="1" as="geometry">
            <mxPoint x="4" y="28" as="targetPoint" />
            <mxPoint x="4" y="8" as="sourcePoint" />
          </mxGeometry>
        </mxCell>
        <mxCell id="ayTrJT8fHetVOEcy8Kd8-246" value="&lt;font style=&quot;font-size: 8px;&quot;&gt;mail&lt;/font&gt;" style="text;html=1;align=center;verticalAlign=middle;resizable=0;points=[];autosize=1;strokeColor=none;fillColor=none;rotation=-60;" parent="1" vertex="1">
          <mxGeometry x="-3" y="469.00152422706617" width="40" height="30" as="geometry" />
        </mxCell>
        <mxCell id="ayTrJT8fHetVOEcy8Kd8-247" value="Tarjeta" style="rounded=0;whiteSpace=wrap;html=1;" parent="1" vertex="1">
          <mxGeometry x="802" y="369.1402540378442" width="160" height="60" as="geometry" />
        </mxCell>
        <mxCell id="ayTrJT8fHetVOEcy8Kd8-248" value="" style="group" parent="1" vertex="1" connectable="0">
          <mxGeometry x="876.5" y="341.2215242270663" width="8" height="28" as="geometry" />
        </mxCell>
        <mxCell id="ayTrJT8fHetVOEcy8Kd8-249" value="" style="ellipse;whiteSpace=wrap;html=1;aspect=fixed;fillColor=light-dark(#FFFFFF,#FFFFFF);" parent="ayTrJT8fHetVOEcy8Kd8-248" vertex="1">
          <mxGeometry width="8" height="8" as="geometry" />
        </mxCell>
        <mxCell id="ayTrJT8fHetVOEcy8Kd8-250" style="edgeStyle=orthogonalEdgeStyle;rounded=0;orthogonalLoop=1;jettySize=auto;html=1;endArrow=none;startFill=0;" parent="ayTrJT8fHetVOEcy8Kd8-248" edge="1">
          <mxGeometry relative="1" as="geometry">
            <mxPoint x="4" y="28" as="targetPoint" />
            <mxPoint x="4" y="8" as="sourcePoint" />
          </mxGeometry>
        </mxCell>
        <mxCell id="ayTrJT8fHetVOEcy8Kd8-251" value="&lt;font style=&quot;font-size: 8px;&quot;&gt;nro&lt;/font&gt;" style="text;html=1;align=center;verticalAlign=middle;resizable=0;points=[];autosize=1;strokeColor=none;fillColor=none;rotation=-60;" parent="1" vertex="1">
          <mxGeometry x="862" y="313.30152422706624" width="40" height="30" as="geometry" />
        </mxCell>
        <mxCell id="ayTrJT8fHetVOEcy8Kd8-252" value="" style="group" parent="1" vertex="1" connectable="0">
          <mxGeometry x="896.5" y="340.68152422706635" width="8" height="28" as="geometry" />
        </mxCell>
        <mxCell id="ayTrJT8fHetVOEcy8Kd8-253" value="" style="ellipse;whiteSpace=wrap;html=1;aspect=fixed;fillColor=light-dark(#FFFFFF,transparent);" parent="ayTrJT8fHetVOEcy8Kd8-252" vertex="1">
          <mxGeometry width="8" height="8" as="geometry" />
        </mxCell>
        <mxCell id="ayTrJT8fHetVOEcy8Kd8-254" style="edgeStyle=orthogonalEdgeStyle;rounded=0;orthogonalLoop=1;jettySize=auto;html=1;endArrow=none;startFill=0;" parent="ayTrJT8fHetVOEcy8Kd8-252" edge="1">
          <mxGeometry relative="1" as="geometry">
            <mxPoint x="4" y="28" as="targetPoint" />
            <mxPoint x="4" y="8" as="sourcePoint" />
          </mxGeometry>
        </mxCell>
        <mxCell id="ayTrJT8fHetVOEcy8Kd8-255" value="&lt;font style=&quot;font-size: 8px;&quot;&gt;cod_seg&lt;/font&gt;" style="text;html=1;align=center;verticalAlign=middle;resizable=0;points=[];autosize=1;strokeColor=none;fillColor=none;rotation=-60;" parent="1" vertex="1">
          <mxGeometry x="876" y="306.30152422706624" width="60" height="30" as="geometry" />
        </mxCell>
        <mxCell id="ayTrJT8fHetVOEcy8Kd8-260" value="Entidad" style="rounded=0;whiteSpace=wrap;html=1;" parent="1" vertex="1">
          <mxGeometry x="1160" y="306.44025403784417" width="160" height="60" as="geometry" />
        </mxCell>
        <mxCell id="ayTrJT8fHetVOEcy8Kd8-261" value="" style="group" parent="1" vertex="1" connectable="0">
          <mxGeometry x="1231.5" y="278.52152422706627" width="8" height="28" as="geometry" />
        </mxCell>
        <mxCell id="ayTrJT8fHetVOEcy8Kd8-262" value="" style="ellipse;whiteSpace=wrap;html=1;aspect=fixed;fillColor=light-dark(#FFFFFF,#FFFFFF);" parent="ayTrJT8fHetVOEcy8Kd8-261" vertex="1">
          <mxGeometry width="8" height="8" as="geometry" />
        </mxCell>
        <mxCell id="ayTrJT8fHetVOEcy8Kd8-263" style="edgeStyle=orthogonalEdgeStyle;rounded=0;orthogonalLoop=1;jettySize=auto;html=1;endArrow=none;startFill=0;" parent="ayTrJT8fHetVOEcy8Kd8-261" edge="1">
          <mxGeometry relative="1" as="geometry">
            <mxPoint x="4" y="28" as="targetPoint" />
            <mxPoint x="4" y="8" as="sourcePoint" />
          </mxGeometry>
        </mxCell>
        <mxCell id="ayTrJT8fHetVOEcy8Kd8-264" value="Banco" style="rounded=0;whiteSpace=wrap;html=1;" parent="1" vertex="1">
          <mxGeometry x="1160" y="449.48025403784436" width="160" height="60" as="geometry" />
        </mxCell>
        <mxCell id="ayTrJT8fHetVOEcy8Kd8-265" value="" style="group" parent="1" vertex="1" connectable="0">
          <mxGeometry x="1231.5" y="421.56152422706646" width="8" height="28" as="geometry" />
        </mxCell>
        <mxCell id="ayTrJT8fHetVOEcy8Kd8-266" value="" style="ellipse;whiteSpace=wrap;html=1;aspect=fixed;fillColor=light-dark(#FFFFFF,#FFFFFF);" parent="ayTrJT8fHetVOEcy8Kd8-265" vertex="1">
          <mxGeometry width="8" height="8" as="geometry" />
        </mxCell>
        <mxCell id="ayTrJT8fHetVOEcy8Kd8-267" style="edgeStyle=orthogonalEdgeStyle;rounded=0;orthogonalLoop=1;jettySize=auto;html=1;endArrow=none;startFill=0;" parent="ayTrJT8fHetVOEcy8Kd8-265" edge="1">
          <mxGeometry relative="1" as="geometry">
            <mxPoint x="4" y="28" as="targetPoint" />
            <mxPoint x="4" y="8" as="sourcePoint" />
          </mxGeometry>
        </mxCell>
        <mxCell id="ayTrJT8fHetVOEcy8Kd8-268" value="&lt;font style=&quot;font-size: 8px;&quot;&gt;nombre&lt;/font&gt;" style="text;html=1;align=center;verticalAlign=middle;resizable=0;points=[];autosize=1;strokeColor=none;fillColor=none;rotation=-60;" parent="1" vertex="1">
          <mxGeometry x="1214" y="387.1015242270664" width="50" height="30" as="geometry" />
        </mxCell>
        <mxCell id="ayTrJT8fHetVOEcy8Kd8-269" value="emitida_por" style="rhombus;whiteSpace=wrap;html=1;" parent="1" vertex="1">
          <mxGeometry x="1024" y="296.22025403784426" width="80" height="80" as="geometry" />
        </mxCell>
        <mxCell id="ayTrJT8fHetVOEcy8Kd8-270" value="asociada" style="rhombus;whiteSpace=wrap;html=1;" parent="1" vertex="1">
          <mxGeometry x="1024" y="439.48025403784436" width="80" height="80" as="geometry" />
        </mxCell>
        <mxCell id="ayTrJT8fHetVOEcy8Kd8-271" value="" style="endArrow=none;html=1;rounded=0;exitX=1;exitY=0.25;exitDx=0;exitDy=0;entryX=0;entryY=0.5;entryDx=0;entryDy=0;" parent="1" source="ayTrJT8fHetVOEcy8Kd8-247" target="ayTrJT8fHetVOEcy8Kd8-269" edge="1">
          <mxGeometry width="50" height="50" relative="1" as="geometry">
            <mxPoint x="1054" y="419.22" as="sourcePoint" />
            <mxPoint x="1104" y="369.22" as="targetPoint" />
          </mxGeometry>
        </mxCell>
        <mxCell id="ayTrJT8fHetVOEcy8Kd8-272" value="" style="endArrow=none;html=1;rounded=0;exitX=1;exitY=0.75;exitDx=0;exitDy=0;entryX=0;entryY=0.5;entryDx=0;entryDy=0;" parent="1" source="ayTrJT8fHetVOEcy8Kd8-247" edge="1" target="ayTrJT8fHetVOEcy8Kd8-270">
          <mxGeometry width="50" height="50" relative="1" as="geometry">
            <mxPoint x="1054" y="419.22" as="sourcePoint" />
            <mxPoint x="1024" y="477.48025403784413" as="targetPoint" />
          </mxGeometry>
        </mxCell>
        <mxCell id="ayTrJT8fHetVOEcy8Kd8-273" value="" style="endArrow=none;html=1;rounded=0;exitX=1;exitY=0.5;exitDx=0;exitDy=0;entryX=0;entryY=0.5;entryDx=0;entryDy=0;" parent="1" source="ayTrJT8fHetVOEcy8Kd8-269" target="ayTrJT8fHetVOEcy8Kd8-260" edge="1">
          <mxGeometry width="50" height="50" relative="1" as="geometry">
            <mxPoint x="1054" y="419.22" as="sourcePoint" />
            <mxPoint x="1104" y="369.22" as="targetPoint" />
          </mxGeometry>
        </mxCell>
        <mxCell id="ayTrJT8fHetVOEcy8Kd8-274" value="" style="endArrow=none;html=1;rounded=0;exitX=1;exitY=0.5;exitDx=0;exitDy=0;entryX=0;entryY=0.5;entryDx=0;entryDy=0;" parent="1" target="ayTrJT8fHetVOEcy8Kd8-264" edge="1">
          <mxGeometry width="50" height="50" relative="1" as="geometry">
            <mxPoint x="1104" y="479.48025403784413" as="sourcePoint" />
            <mxPoint x="1124" y="431.22" as="targetPoint" />
          </mxGeometry>
        </mxCell>
        <mxCell id="ayTrJT8fHetVOEcy8Kd8-275" value="(1,1)" style="text;html=1;align=center;verticalAlign=middle;resizable=0;points=[];autosize=1;strokeColor=none;fillColor=none;" parent="1" vertex="1">
          <mxGeometry x="949" y="336.2199999999999" width="60" height="30" as="geometry" />
        </mxCell>
        <mxCell id="ayTrJT8fHetVOEcy8Kd8-276" value="(1,1)" style="text;html=1;align=center;verticalAlign=middle;resizable=0;points=[];autosize=1;strokeColor=none;fillColor=none;" parent="1" vertex="1">
          <mxGeometry x="936" y="434" width="60" height="30" as="geometry" />
        </mxCell>
        <mxCell id="ayTrJT8fHetVOEcy8Kd8-277" value="(0,n)" style="text;html=1;align=center;verticalAlign=middle;resizable=0;points=[];autosize=1;strokeColor=none;fillColor=none;" parent="1" vertex="1">
          <mxGeometry x="1104" y="306.51999999999987" width="60" height="30" as="geometry" />
        </mxCell>
        <mxCell id="ayTrJT8fHetVOEcy8Kd8-278" value="(0,n)" style="text;html=1;align=center;verticalAlign=middle;resizable=0;points=[];autosize=1;strokeColor=none;fillColor=none;" parent="1" vertex="1">
          <mxGeometry x="1100" y="449.4800000000001" width="60" height="30" as="geometry" />
        </mxCell>
        <mxCell id="ayTrJT8fHetVOEcy8Kd8-282" value="Producto" style="rounded=0;whiteSpace=wrap;html=1;" parent="1" vertex="1">
          <mxGeometry x="340" y="107.92025403784424" width="160" height="60" as="geometry" />
        </mxCell>
        <mxCell id="ayTrJT8fHetVOEcy8Kd8-283" value="" style="group" parent="1" vertex="1" connectable="0">
          <mxGeometry x="376.5" y="80.00152422706634" width="8" height="28" as="geometry" />
        </mxCell>
        <mxCell id="ayTrJT8fHetVOEcy8Kd8-284" value="" style="ellipse;whiteSpace=wrap;html=1;aspect=fixed;fillColor=light-dark(#FFFFFF,#FFFFFF);" parent="ayTrJT8fHetVOEcy8Kd8-283" vertex="1">
          <mxGeometry width="8" height="8" as="geometry" />
        </mxCell>
        <mxCell id="ayTrJT8fHetVOEcy8Kd8-285" style="edgeStyle=orthogonalEdgeStyle;rounded=0;orthogonalLoop=1;jettySize=auto;html=1;endArrow=none;startFill=0;" parent="ayTrJT8fHetVOEcy8Kd8-283" edge="1">
          <mxGeometry relative="1" as="geometry">
            <mxPoint x="4" y="28" as="targetPoint" />
            <mxPoint x="4" y="8" as="sourcePoint" />
          </mxGeometry>
        </mxCell>
        <mxCell id="ayTrJT8fHetVOEcy8Kd8-286" value="&lt;font style=&quot;font-size: 8px;&quot;&gt;cod_prod&lt;/font&gt;" style="text;html=1;align=center;verticalAlign=middle;resizable=0;points=[];autosize=1;strokeColor=none;fillColor=none;rotation=-60;" parent="1" vertex="1">
          <mxGeometry x="357" y="42.00152422706627" width="60" height="30" as="geometry" />
        </mxCell>
        <mxCell id="ayTrJT8fHetVOEcy8Kd8-287" value="" style="group" parent="1" vertex="1" connectable="0">
          <mxGeometry x="396.5" y="79.46152422706638" width="8" height="28" as="geometry" />
        </mxCell>
        <mxCell id="ayTrJT8fHetVOEcy8Kd8-288" value="" style="ellipse;whiteSpace=wrap;html=1;aspect=fixed;fillColor=light-dark(#FFFFFF,transparent);" parent="ayTrJT8fHetVOEcy8Kd8-287" vertex="1">
          <mxGeometry width="8" height="8" as="geometry" />
        </mxCell>
        <mxCell id="ayTrJT8fHetVOEcy8Kd8-289" style="edgeStyle=orthogonalEdgeStyle;rounded=0;orthogonalLoop=1;jettySize=auto;html=1;endArrow=none;startFill=0;" parent="ayTrJT8fHetVOEcy8Kd8-287" edge="1">
          <mxGeometry relative="1" as="geometry">
            <mxPoint x="4" y="28" as="targetPoint" />
            <mxPoint x="4" y="8" as="sourcePoint" />
          </mxGeometry>
        </mxCell>
        <mxCell id="ayTrJT8fHetVOEcy8Kd8-290" value="&lt;font style=&quot;font-size: 8px;&quot;&gt;descripcion&lt;/font&gt;" style="text;html=1;align=center;verticalAlign=middle;resizable=0;points=[];autosize=1;strokeColor=none;fillColor=none;rotation=-60;" parent="1" vertex="1">
          <mxGeometry x="370" y="34.00152422706627" width="80" height="30" as="geometry" />
        </mxCell>
        <mxCell id="ayTrJT8fHetVOEcy8Kd8-291" value="" style="group" parent="1" vertex="1" connectable="0">
          <mxGeometry x="416" y="80.00152422706634" width="8" height="28" as="geometry" />
        </mxCell>
        <mxCell id="ayTrJT8fHetVOEcy8Kd8-292" value="" style="ellipse;whiteSpace=wrap;html=1;aspect=fixed;fillColor=light-dark(#FFFFFF,transparent);" parent="ayTrJT8fHetVOEcy8Kd8-291" vertex="1">
          <mxGeometry width="8" height="8" as="geometry" />
        </mxCell>
        <mxCell id="ayTrJT8fHetVOEcy8Kd8-293" style="edgeStyle=orthogonalEdgeStyle;rounded=0;orthogonalLoop=1;jettySize=auto;html=1;endArrow=none;startFill=0;" parent="ayTrJT8fHetVOEcy8Kd8-291" edge="1">
          <mxGeometry relative="1" as="geometry">
            <mxPoint x="4" y="28" as="targetPoint" />
            <mxPoint x="4" y="8" as="sourcePoint" />
          </mxGeometry>
        </mxCell>
        <mxCell id="ayTrJT8fHetVOEcy8Kd8-294" value="&lt;font style=&quot;font-size: 8px;&quot;&gt;precio_venta(0,1)&lt;/font&gt;" style="text;html=1;align=center;verticalAlign=middle;resizable=0;points=[];autosize=1;strokeColor=none;fillColor=none;rotation=-60;" parent="1" vertex="1">
          <mxGeometry x="383" y="21.001524227066227" width="110" height="30" as="geometry" />
        </mxCell>
        <mxCell id="ayTrJT8fHetVOEcy8Kd8-299" value="" style="group" parent="1" vertex="1" connectable="0">
          <mxGeometry x="436.5" y="79.96152422706638" width="8" height="28" as="geometry" />
        </mxCell>
        <mxCell id="ayTrJT8fHetVOEcy8Kd8-300" value="" style="ellipse;whiteSpace=wrap;html=1;aspect=fixed;fillColor=light-dark(#FFFFFF,transparent);" parent="ayTrJT8fHetVOEcy8Kd8-299" vertex="1">
          <mxGeometry width="8" height="8" as="geometry" />
        </mxCell>
        <mxCell id="ayTrJT8fHetVOEcy8Kd8-301" style="edgeStyle=orthogonalEdgeStyle;rounded=0;orthogonalLoop=1;jettySize=auto;html=1;endArrow=none;startFill=0;" parent="ayTrJT8fHetVOEcy8Kd8-299" edge="1">
          <mxGeometry relative="1" as="geometry">
            <mxPoint x="4" y="28" as="targetPoint" />
            <mxPoint x="4" y="8" as="sourcePoint" />
          </mxGeometry>
        </mxCell>
        <mxCell id="ayTrJT8fHetVOEcy8Kd8-302" value="&lt;font style=&quot;font-size: 8px;&quot;&gt;precio_alquiler&lt;/font&gt;" style="text;html=1;align=center;verticalAlign=middle;resizable=0;points=[];autosize=1;strokeColor=none;fillColor=none;rotation=-60;" parent="1" vertex="1">
          <mxGeometry x="406" y="25.00152422706627" width="100" height="30" as="geometry" />
        </mxCell>
        <mxCell id="ayTrJT8fHetVOEcy8Kd8-303" value="" style="group" parent="1" vertex="1" connectable="0">
          <mxGeometry x="456" y="80.50152422706634" width="8" height="28" as="geometry" />
        </mxCell>
        <mxCell id="ayTrJT8fHetVOEcy8Kd8-304" value="" style="ellipse;whiteSpace=wrap;html=1;aspect=fixed;fillColor=light-dark(#FFFFFF,transparent);" parent="ayTrJT8fHetVOEcy8Kd8-303" vertex="1">
          <mxGeometry width="8" height="8" as="geometry" />
        </mxCell>
        <mxCell id="ayTrJT8fHetVOEcy8Kd8-305" style="edgeStyle=orthogonalEdgeStyle;rounded=0;orthogonalLoop=1;jettySize=auto;html=1;endArrow=none;startFill=0;" parent="ayTrJT8fHetVOEcy8Kd8-303" edge="1">
          <mxGeometry relative="1" as="geometry">
            <mxPoint x="4" y="28" as="targetPoint" />
            <mxPoint x="4" y="8" as="sourcePoint" />
          </mxGeometry>
        </mxCell>
        <mxCell id="ayTrJT8fHetVOEcy8Kd8-306" value="&lt;font style=&quot;font-size: 8px;&quot;&gt;modo&lt;/font&gt;" style="text;html=1;align=center;verticalAlign=middle;resizable=0;points=[];autosize=1;strokeColor=none;fillColor=none;rotation=-60;" parent="1" vertex="1">
          <mxGeometry x="442" y="48.00152422706623" width="40" height="30" as="geometry" />
        </mxCell>
        <mxCell id="ayTrJT8fHetVOEcy8Kd8-413" style="edgeStyle=orthogonalEdgeStyle;rounded=0;orthogonalLoop=1;jettySize=auto;html=1;entryX=0;entryY=0.5;entryDx=0;entryDy=0;endArrow=none;startFill=0;" parent="1" source="ayTrJT8fHetVOEcy8Kd8-307" target="ayTrJT8fHetVOEcy8Kd8-213" edge="1">
          <mxGeometry relative="1" as="geometry" />
        </mxCell>
        <mxCell id="ayTrJT8fHetVOEcy8Kd8-307" value="Transaccion" style="rounded=0;whiteSpace=wrap;html=1;" parent="1" vertex="1">
          <mxGeometry x="340.5" y="369.00025403784423" width="160" height="60" as="geometry" />
        </mxCell>
        <mxCell id="ayTrJT8fHetVOEcy8Kd8-308" value="Alquiler" style="rounded=0;whiteSpace=wrap;html=1;" parent="1" vertex="1">
          <mxGeometry x="190" y="528.0002540378442" width="160" height="60" as="geometry" />
        </mxCell>
        <mxCell id="ayTrJT8fHetVOEcy8Kd8-309" value="Venta" style="rounded=0;whiteSpace=wrap;html=1;" parent="1" vertex="1">
          <mxGeometry x="490.5" y="529.4602540378442" width="160" height="60" as="geometry" />
        </mxCell>
        <mxCell id="ayTrJT8fHetVOEcy8Kd8-310" value="&lt;font style=&quot;font-size: 8px;&quot;&gt;nombre&lt;/font&gt;" style="text;html=1;align=center;verticalAlign=middle;resizable=0;points=[];autosize=1;strokeColor=none;fillColor=none;rotation=-60;" parent="1" vertex="1">
          <mxGeometry x="1213" y="241.52152422706638" width="50" height="30" as="geometry" />
        </mxCell>
        <mxCell id="ayTrJT8fHetVOEcy8Kd8-312" value="" style="endArrow=none;startArrow=none;html=1;rounded=0;exitX=0.75;exitY=0;exitDx=0;exitDy=0;startFill=0;entryX=0.25;entryY=0;entryDx=0;entryDy=0;" parent="1" source="ayTrJT8fHetVOEcy8Kd8-308" target="ayTrJT8fHetVOEcy8Kd8-309" edge="1">
          <mxGeometry width="50" height="50" relative="1" as="geometry">
            <mxPoint x="308" y="528.0002540378441" as="sourcePoint" />
            <mxPoint x="576.5" y="529.4602540378439" as="targetPoint" />
            <Array as="points">
              <mxPoint x="310" y="490" />
              <mxPoint x="530" y="490" />
            </Array>
          </mxGeometry>
        </mxCell>
        <mxCell id="ayTrJT8fHetVOEcy8Kd8-313" value="(T,E)" style="text;html=1;align=center;verticalAlign=middle;resizable=0;points=[];autosize=1;strokeColor=none;fillColor=none;" parent="1" vertex="1">
          <mxGeometry x="413.5" y="430.0002540378444" width="60" height="30" as="geometry" />
        </mxCell>
        <mxCell id="ayTrJT8fHetVOEcy8Kd8-314" value="" style="endArrow=classic;html=1;rounded=0;entryX=0.5;entryY=1;entryDx=0;entryDy=0;endFill=1;" parent="1" edge="1">
          <mxGeometry width="50" height="50" relative="1" as="geometry">
            <mxPoint x="420" y="490" as="sourcePoint" />
            <mxPoint x="420.20000000000005" y="428" as="targetPoint" />
          </mxGeometry>
        </mxCell>
        <mxCell id="ayTrJT8fHetVOEcy8Kd8-316" style="edgeStyle=orthogonalEdgeStyle;rounded=0;orthogonalLoop=1;jettySize=auto;html=1;entryX=0.5;entryY=1;entryDx=0;entryDy=0;endArrow=none;startFill=0;" parent="1" source="ayTrJT8fHetVOEcy8Kd8-315" target="ayTrJT8fHetVOEcy8Kd8-282" edge="1">
          <mxGeometry relative="1" as="geometry" />
        </mxCell>
        <mxCell id="ayTrJT8fHetVOEcy8Kd8-317" style="edgeStyle=orthogonalEdgeStyle;rounded=0;orthogonalLoop=1;jettySize=auto;html=1;entryX=0.5;entryY=0;entryDx=0;entryDy=0;endArrow=none;startFill=0;" parent="1" source="ayTrJT8fHetVOEcy8Kd8-315" target="ayTrJT8fHetVOEcy8Kd8-307" edge="1">
          <mxGeometry relative="1" as="geometry">
            <Array as="points">
              <mxPoint x="420" y="330" />
            </Array>
          </mxGeometry>
        </mxCell>
        <mxCell id="ayTrJT8fHetVOEcy8Kd8-315" value="prod_trans" style="rhombus;whiteSpace=wrap;html=1;" parent="1" vertex="1">
          <mxGeometry x="380" y="230.00025403784423" width="80" height="80" as="geometry" />
        </mxCell>
        <mxCell id="ayTrJT8fHetVOEcy8Kd8-319" value="" style="group" parent="1" vertex="1" connectable="0">
          <mxGeometry x="225.5" y="499.50152422706634" width="8" height="28" as="geometry" />
        </mxCell>
        <mxCell id="ayTrJT8fHetVOEcy8Kd8-320" value="" style="ellipse;whiteSpace=wrap;html=1;aspect=fixed;fillColor=light-dark(#FFFFFF,#FFFFFF);" parent="ayTrJT8fHetVOEcy8Kd8-319" vertex="1">
          <mxGeometry width="8" height="8" as="geometry" />
        </mxCell>
        <mxCell id="ayTrJT8fHetVOEcy8Kd8-321" style="edgeStyle=orthogonalEdgeStyle;rounded=0;orthogonalLoop=1;jettySize=auto;html=1;endArrow=none;startFill=0;" parent="ayTrJT8fHetVOEcy8Kd8-319" edge="1">
          <mxGeometry relative="1" as="geometry">
            <mxPoint x="4" y="28" as="targetPoint" />
            <mxPoint x="4" y="8" as="sourcePoint" />
          </mxGeometry>
        </mxCell>
        <mxCell id="ayTrJT8fHetVOEcy8Kd8-322" value="&lt;font style=&quot;font-size: 8px;&quot;&gt;id&lt;/font&gt;" style="text;html=1;align=center;verticalAlign=middle;resizable=0;points=[];autosize=1;strokeColor=none;fillColor=none;rotation=-60;" parent="1" vertex="1">
          <mxGeometry x="214" y="474.0015242270663" width="30" height="30" as="geometry" />
        </mxCell>
        <mxCell id="ayTrJT8fHetVOEcy8Kd8-323" value="" style="group" parent="1" vertex="1" connectable="0">
          <mxGeometry x="245.5" y="498.9615242270664" width="8" height="28" as="geometry" />
        </mxCell>
        <mxCell id="ayTrJT8fHetVOEcy8Kd8-324" value="" style="ellipse;whiteSpace=wrap;html=1;aspect=fixed;fillColor=light-dark(#FFFFFF,transparent);" parent="ayTrJT8fHetVOEcy8Kd8-323" vertex="1">
          <mxGeometry width="8" height="8" as="geometry" />
        </mxCell>
        <mxCell id="ayTrJT8fHetVOEcy8Kd8-325" style="edgeStyle=orthogonalEdgeStyle;rounded=0;orthogonalLoop=1;jettySize=auto;html=1;endArrow=none;startFill=0;" parent="ayTrJT8fHetVOEcy8Kd8-323" edge="1">
          <mxGeometry relative="1" as="geometry">
            <mxPoint x="4" y="28" as="targetPoint" />
            <mxPoint x="4" y="8" as="sourcePoint" />
          </mxGeometry>
        </mxCell>
        <mxCell id="ayTrJT8fHetVOEcy8Kd8-326" value="&lt;font style=&quot;font-size: 8px;&quot;&gt;fecha_devol&lt;/font&gt;" style="text;html=1;align=center;verticalAlign=middle;resizable=0;points=[];autosize=1;strokeColor=none;fillColor=none;rotation=-60;" parent="1" vertex="1">
          <mxGeometry x="221" y="454.0015242270663" width="80" height="30" as="geometry" />
        </mxCell>
        <mxCell id="ayTrJT8fHetVOEcy8Kd8-327" value="" style="group" parent="1" vertex="1" connectable="0">
          <mxGeometry x="265" y="499.50152422706634" width="8" height="28" as="geometry" />
        </mxCell>
        <mxCell id="ayTrJT8fHetVOEcy8Kd8-328" value="" style="ellipse;whiteSpace=wrap;html=1;aspect=fixed;fillColor=light-dark(#FFFFFF,transparent);" parent="ayTrJT8fHetVOEcy8Kd8-327" vertex="1">
          <mxGeometry width="8" height="8" as="geometry" />
        </mxCell>
        <mxCell id="ayTrJT8fHetVOEcy8Kd8-329" style="edgeStyle=orthogonalEdgeStyle;rounded=0;orthogonalLoop=1;jettySize=auto;html=1;endArrow=none;startFill=0;" parent="ayTrJT8fHetVOEcy8Kd8-327" edge="1">
          <mxGeometry relative="1" as="geometry">
            <mxPoint x="4" y="28" as="targetPoint" />
            <mxPoint x="4" y="8" as="sourcePoint" />
          </mxGeometry>
        </mxCell>
        <mxCell id="ayTrJT8fHetVOEcy8Kd8-330" value="&lt;font style=&quot;font-size: 8px;&quot;&gt;fecha_alq)&lt;/font&gt;" style="text;html=1;align=center;verticalAlign=middle;resizable=0;points=[];autosize=1;strokeColor=none;fillColor=none;rotation=-60;" parent="1" vertex="1">
          <mxGeometry x="243" y="456.0015242270662" width="70" height="30" as="geometry" />
        </mxCell>
        <mxCell id="ayTrJT8fHetVOEcy8Kd8-331" value="" style="group" parent="1" vertex="1" connectable="0">
          <mxGeometry x="285.5" y="499.4615242270664" width="8" height="28" as="geometry" />
        </mxCell>
        <mxCell id="ayTrJT8fHetVOEcy8Kd8-332" value="" style="ellipse;whiteSpace=wrap;html=1;aspect=fixed;fillColor=light-dark(#FFFFFF,transparent);" parent="ayTrJT8fHetVOEcy8Kd8-331" vertex="1">
          <mxGeometry width="8" height="8" as="geometry" />
        </mxCell>
        <mxCell id="ayTrJT8fHetVOEcy8Kd8-333" style="edgeStyle=orthogonalEdgeStyle;rounded=0;orthogonalLoop=1;jettySize=auto;html=1;endArrow=none;startFill=0;" parent="ayTrJT8fHetVOEcy8Kd8-331" edge="1">
          <mxGeometry relative="1" as="geometry">
            <mxPoint x="4" y="28" as="targetPoint" />
            <mxPoint x="4" y="8" as="sourcePoint" />
          </mxGeometry>
        </mxCell>
        <mxCell id="ayTrJT8fHetVOEcy8Kd8-334" value="&lt;font style=&quot;font-size: 8px;&quot;&gt;valor_tot&lt;/font&gt;" style="text;html=1;align=center;verticalAlign=middle;resizable=0;points=[];autosize=1;strokeColor=none;fillColor=none;rotation=-60;" parent="1" vertex="1">
          <mxGeometry x="262" y="458.0015242270663" width="70" height="30" as="geometry" />
        </mxCell>
        <mxCell id="ayTrJT8fHetVOEcy8Kd8-377" value="domicilio" style="ellipse;whiteSpace=wrap;html=1;" parent="1" vertex="1">
          <mxGeometry x="118" y="472.0002540378444" width="76" height="24" as="geometry" />
        </mxCell>
        <mxCell id="ayTrJT8fHetVOEcy8Kd8-378" value="" style="endArrow=none;html=1;rounded=0;exitX=0.75;exitY=0;exitDx=0;exitDy=0;" parent="1" edge="1">
          <mxGeometry width="50" height="50" relative="1" as="geometry">
            <mxPoint x="149" y="472.0002540378444" as="sourcePoint" />
            <mxPoint x="162" y="449.0002540378444" as="targetPoint" />
          </mxGeometry>
        </mxCell>
        <mxCell id="ayTrJT8fHetVOEcy8Kd8-379" value="" style="endArrow=none;html=1;rounded=0;exitX=0.75;exitY=0;exitDx=0;exitDy=0;" parent="1" edge="1">
          <mxGeometry width="50" height="50" relative="1" as="geometry">
            <mxPoint x="179" y="475.0002540378444" as="sourcePoint" />
            <mxPoint x="189" y="462.0002540378444" as="targetPoint" />
          </mxGeometry>
        </mxCell>
        <mxCell id="ayTrJT8fHetVOEcy8Kd8-382" value="" style="group" parent="1" vertex="1" connectable="0">
          <mxGeometry x="160" y="442.00152422706634" width="8" height="28" as="geometry" />
        </mxCell>
        <mxCell id="ayTrJT8fHetVOEcy8Kd8-383" value="" style="ellipse;whiteSpace=wrap;html=1;aspect=fixed;" parent="ayTrJT8fHetVOEcy8Kd8-382" vertex="1">
          <mxGeometry width="8" height="8" as="geometry" />
        </mxCell>
        <mxCell id="ayTrJT8fHetVOEcy8Kd8-384" value="" style="group" parent="1" vertex="1" connectable="0">
          <mxGeometry x="187" y="455.00152422706634" width="8" height="28" as="geometry" />
        </mxCell>
        <mxCell id="ayTrJT8fHetVOEcy8Kd8-385" value="" style="ellipse;whiteSpace=wrap;html=1;aspect=fixed;" parent="ayTrJT8fHetVOEcy8Kd8-384" vertex="1">
          <mxGeometry width="8" height="8" as="geometry" />
        </mxCell>
        <mxCell id="ayTrJT8fHetVOEcy8Kd8-389" value="&lt;font style=&quot;font-size: 8px;&quot;&gt;direccion&lt;/font&gt;" style="text;html=1;align=center;verticalAlign=middle;resizable=0;points=[];autosize=1;strokeColor=none;fillColor=none;rotation=0;" parent="1" vertex="1">
          <mxGeometry x="159" y="428.00152422706634" width="70" height="30" as="geometry" />
        </mxCell>
        <mxCell id="ayTrJT8fHetVOEcy8Kd8-390" value="&lt;font style=&quot;font-size: 8px;&quot;&gt;costo_envio&lt;/font&gt;" style="text;html=1;align=center;verticalAlign=middle;resizable=0;points=[];autosize=1;strokeColor=none;fillColor=none;rotation=0;" parent="1" vertex="1">
          <mxGeometry x="185" y="441.00152422706634" width="80" height="30" as="geometry" />
        </mxCell>
        <mxCell id="ayTrJT8fHetVOEcy8Kd8-394" value="" style="endArrow=none;html=1;rounded=0;exitX=1;exitY=1;exitDx=0;exitDy=0;" parent="1" source="ayTrJT8fHetVOEcy8Kd8-377" edge="1">
          <mxGeometry width="50" height="50" relative="1" as="geometry">
            <mxPoint x="340" y="500" as="sourcePoint" />
            <mxPoint x="210" y="528" as="targetPoint" />
          </mxGeometry>
        </mxCell>
        <mxCell id="ayTrJT8fHetVOEcy8Kd8-395" value="" style="group" parent="1" vertex="1" connectable="0">
          <mxGeometry x="565.5" y="501.50152422706634" width="8" height="28" as="geometry" />
        </mxCell>
        <mxCell id="ayTrJT8fHetVOEcy8Kd8-396" value="" style="ellipse;whiteSpace=wrap;html=1;aspect=fixed;fillColor=light-dark(#FFFFFF,#FFFFFF);" parent="ayTrJT8fHetVOEcy8Kd8-395" vertex="1">
          <mxGeometry width="8" height="8" as="geometry" />
        </mxCell>
        <mxCell id="ayTrJT8fHetVOEcy8Kd8-397" style="edgeStyle=orthogonalEdgeStyle;rounded=0;orthogonalLoop=1;jettySize=auto;html=1;endArrow=none;startFill=0;" parent="ayTrJT8fHetVOEcy8Kd8-395" edge="1">
          <mxGeometry relative="1" as="geometry">
            <mxPoint x="4" y="28" as="targetPoint" />
            <mxPoint x="4" y="8" as="sourcePoint" />
          </mxGeometry>
        </mxCell>
        <mxCell id="ayTrJT8fHetVOEcy8Kd8-398" value="&lt;font style=&quot;font-size: 8px;&quot;&gt;nro_ticket&lt;/font&gt;" style="text;html=1;align=center;verticalAlign=middle;resizable=0;points=[];autosize=1;strokeColor=none;fillColor=none;rotation=-60;" parent="1" vertex="1">
          <mxGeometry x="543" y="458.0015242270663" width="70" height="30" as="geometry" />
        </mxCell>
        <mxCell id="ayTrJT8fHetVOEcy8Kd8-399" value="" style="group" parent="1" vertex="1" connectable="0">
          <mxGeometry x="585.5" y="500.9615242270664" width="8" height="28" as="geometry" />
        </mxCell>
        <mxCell id="ayTrJT8fHetVOEcy8Kd8-400" value="" style="ellipse;whiteSpace=wrap;html=1;aspect=fixed;fillColor=light-dark(#FFFFFF,transparent);" parent="ayTrJT8fHetVOEcy8Kd8-399" vertex="1">
          <mxGeometry width="8" height="8" as="geometry" />
        </mxCell>
        <mxCell id="ayTrJT8fHetVOEcy8Kd8-401" style="edgeStyle=orthogonalEdgeStyle;rounded=0;orthogonalLoop=1;jettySize=auto;html=1;endArrow=none;startFill=0;" parent="ayTrJT8fHetVOEcy8Kd8-399" edge="1">
          <mxGeometry relative="1" as="geometry">
            <mxPoint x="4" y="28" as="targetPoint" />
            <mxPoint x="4" y="8" as="sourcePoint" />
          </mxGeometry>
        </mxCell>
        <mxCell id="ayTrJT8fHetVOEcy8Kd8-402" value="&lt;font style=&quot;font-size: 8px;&quot;&gt;fecha&lt;/font&gt;" style="text;html=1;align=center;verticalAlign=middle;resizable=0;points=[];autosize=1;strokeColor=none;fillColor=none;rotation=-60;" parent="1" vertex="1">
          <mxGeometry x="567" y="467.0015242270663" width="50" height="30" as="geometry" />
        </mxCell>
        <mxCell id="ayTrJT8fHetVOEcy8Kd8-403" value="" style="group" parent="1" vertex="1" connectable="0">
          <mxGeometry x="605" y="501.50152422706634" width="8" height="28" as="geometry" />
        </mxCell>
        <mxCell id="ayTrJT8fHetVOEcy8Kd8-404" value="" style="ellipse;whiteSpace=wrap;html=1;aspect=fixed;fillColor=light-dark(#FFFFFF,transparent);" parent="ayTrJT8fHetVOEcy8Kd8-403" vertex="1">
          <mxGeometry width="8" height="8" as="geometry" />
        </mxCell>
        <mxCell id="ayTrJT8fHetVOEcy8Kd8-405" style="edgeStyle=orthogonalEdgeStyle;rounded=0;orthogonalLoop=1;jettySize=auto;html=1;endArrow=none;startFill=0;" parent="ayTrJT8fHetVOEcy8Kd8-403" edge="1">
          <mxGeometry relative="1" as="geometry">
            <mxPoint x="4" y="28" as="targetPoint" />
            <mxPoint x="4" y="8" as="sourcePoint" />
          </mxGeometry>
        </mxCell>
        <mxCell id="ayTrJT8fHetVOEcy8Kd8-406" value="&lt;font style=&quot;font-size: 8px;&quot;&gt;seña&lt;/font&gt;" style="text;html=1;align=center;verticalAlign=middle;resizable=0;points=[];autosize=1;strokeColor=none;fillColor=none;rotation=-60;" parent="1" vertex="1">
          <mxGeometry x="590" y="468.0015242270662" width="40" height="30" as="geometry" />
        </mxCell>
        <mxCell id="ayTrJT8fHetVOEcy8Kd8-407" value="" style="group" parent="1" vertex="1" connectable="0">
          <mxGeometry x="625.5" y="501.4615242270664" width="8" height="28" as="geometry" />
        </mxCell>
        <mxCell id="ayTrJT8fHetVOEcy8Kd8-408" value="" style="ellipse;whiteSpace=wrap;html=1;aspect=fixed;fillColor=light-dark(#FFFFFF,transparent);" parent="ayTrJT8fHetVOEcy8Kd8-407" vertex="1">
          <mxGeometry width="8" height="8" as="geometry" />
        </mxCell>
        <mxCell id="ayTrJT8fHetVOEcy8Kd8-409" style="edgeStyle=orthogonalEdgeStyle;rounded=0;orthogonalLoop=1;jettySize=auto;html=1;endArrow=none;startFill=0;" parent="ayTrJT8fHetVOEcy8Kd8-407" edge="1">
          <mxGeometry relative="1" as="geometry">
            <mxPoint x="4" y="28" as="targetPoint" />
            <mxPoint x="4" y="8" as="sourcePoint" />
          </mxGeometry>
        </mxCell>
        <mxCell id="ayTrJT8fHetVOEcy8Kd8-410" value="&lt;font style=&quot;font-size: 8px;&quot;&gt;valor_tot&lt;/font&gt;" style="text;html=1;align=center;verticalAlign=middle;resizable=0;points=[];autosize=1;strokeColor=none;fillColor=none;rotation=-60;" parent="1" vertex="1">
          <mxGeometry x="602" y="460.0015242270663" width="70" height="30" as="geometry" />
        </mxCell>
        <mxCell id="ayTrJT8fHetVOEcy8Kd8-411" value="(0,n)" style="text;html=1;align=center;verticalAlign=middle;resizable=0;points=[];autosize=1;strokeColor=none;fillColor=none;" parent="1" vertex="1">
          <mxGeometry x="422" y="167.91999999999993" width="60" height="30" as="geometry" />
        </mxCell>
        <mxCell id="ayTrJT8fHetVOEcy8Kd8-412" value="(1,n)" style="text;html=1;align=center;verticalAlign=middle;resizable=0;points=[];autosize=1;strokeColor=none;fillColor=none;" parent="1" vertex="1">
          <mxGeometry x="422" y="338.99999999999994" width="60" height="30" as="geometry" />
        </mxCell>
        <mxCell id="ayTrJT8fHetVOEcy8Kd8-415" value="(0,1)" style="text;html=1;align=center;verticalAlign=middle;resizable=0;points=[];autosize=1;strokeColor=none;fillColor=none;" parent="1" vertex="1">
          <mxGeometry x="500" y="368.67999999999995" width="60" height="30" as="geometry" />
        </mxCell>
        <mxCell id="ayTrJT8fHetVOEcy8Kd8-416" value="(0,n)" style="text;html=1;align=center;verticalAlign=middle;resizable=0;points=[];autosize=1;strokeColor=none;fillColor=none;" parent="1" vertex="1">
          <mxGeometry x="742" y="368.67999999999995" width="60" height="30" as="geometry" />
        </mxCell>
        <mxCell id="ayTrJT8fHetVOEcy8Kd8-420" value="" style="group" parent="1" vertex="1" connectable="0">
          <mxGeometry x="660.5" y="347.2215242270663" width="8" height="28" as="geometry" />
        </mxCell>
        <mxCell id="ayTrJT8fHetVOEcy8Kd8-421" value="" style="ellipse;whiteSpace=wrap;html=1;aspect=fixed;fillColor=light-dark(#FFFFFF,transparent);" parent="ayTrJT8fHetVOEcy8Kd8-420" vertex="1">
          <mxGeometry width="8" height="8" as="geometry" />
        </mxCell>
        <mxCell id="ayTrJT8fHetVOEcy8Kd8-422" style="edgeStyle=orthogonalEdgeStyle;rounded=0;orthogonalLoop=1;jettySize=auto;html=1;endArrow=none;startFill=0;" parent="ayTrJT8fHetVOEcy8Kd8-420" edge="1">
          <mxGeometry relative="1" as="geometry">
            <mxPoint x="4" y="28" as="targetPoint" />
            <mxPoint x="4" y="8" as="sourcePoint" />
          </mxGeometry>
        </mxCell>
        <mxCell id="ayTrJT8fHetVOEcy8Kd8-423" value="&lt;font style=&quot;font-size: 8px;&quot;&gt;cuotas(0,1)&lt;/font&gt;" style="text;html=1;align=center;verticalAlign=middle;resizable=0;points=[];autosize=1;strokeColor=none;fillColor=none;rotation=-60;" parent="1" vertex="1">
          <mxGeometry x="635" y="304.0015242270663" width="80" height="30" as="geometry" />
        </mxCell>
        <mxCell id="ayTrJT8fHetVOEcy8Kd8-430" style="edgeStyle=orthogonalEdgeStyle;rounded=0;orthogonalLoop=1;jettySize=auto;html=1;endArrow=none;startFill=0;" parent="1" source="ayTrJT8fHetVOEcy8Kd8-425" target="ayTrJT8fHetVOEcy8Kd8-307" edge="1">
          <mxGeometry relative="1" as="geometry" />
        </mxCell>
        <mxCell id="ayTrJT8fHetVOEcy8Kd8-425" value="prod_trans" style="rhombus;whiteSpace=wrap;html=1;" parent="1" vertex="1">
          <mxGeometry x="26" y="358.46025403784427" width="80" height="80" as="geometry" />
        </mxCell>
        <mxCell id="ayTrJT8fHetVOEcy8Kd8-428" value="(0,n)" style="text;html=1;align=center;verticalAlign=middle;resizable=0;points=[];autosize=1;strokeColor=none;fillColor=none;" parent="1" vertex="1">
          <mxGeometry x="-108" y="368.5002540378444" width="60" height="30" as="geometry" />
        </mxCell>
        <mxCell id="ayTrJT8fHetVOEcy8Kd8-431" value="(1,1)" style="text;html=1;align=center;verticalAlign=middle;resizable=0;points=[];autosize=1;strokeColor=none;fillColor=none;" parent="1" vertex="1">
          <mxGeometry x="280.5" y="369.2202540378444" width="60" height="30" as="geometry" />
        </mxCell>
      </root>
    </mxGraphModel>
  </diagram>
</mxfile>
